<svg width="32" height="32" viewBox="0 0 32 32" fill="none" xmlns="http://www.w3.org/2000/svg">
  <g clip-path="url(#clip0_706_208)">
    <path d="M14.6453 18.448C14.4689 18.448 14.2996 18.378 14.1747 18.2533L13.1813 17.2627C13.1176 17.2013 13.0667 17.1278 13.0316 17.0465C12.9966 16.9652 12.9781 16.8777 12.9772 16.7892C12.9763 16.7007 12.993 16.6129 13.0264 16.5309C13.0599 16.449 13.1092 16.3745 13.1718 16.3118C13.2343 16.2491 13.3086 16.1995 13.3905 16.1659C13.4724 16.1322 13.5601 16.1152 13.6487 16.1159C13.7372 16.1165 13.8247 16.1348 13.9061 16.1696C13.9874 16.2044 14.0611 16.2551 14.1227 16.3187L14.6453 16.84L16.22 15.2667C16.345 15.1415 16.5146 15.0711 16.6915 15.071C16.8684 15.0708 17.0382 15.141 17.1633 15.266C17.2885 15.391 17.3589 15.5606 17.359 15.7375C17.3592 15.9144 17.289 16.0842 17.164 16.2093L15.1173 18.2533C14.9917 18.3778 14.8222 18.4477 14.6453 18.448ZM27.116 18.252L29.1613 16.2093C29.2828 16.0836 29.35 15.9152 29.3485 15.7404C29.3469 15.5656 29.2768 15.3984 29.1532 15.2748C29.0296 15.1512 28.8624 15.0811 28.6876 15.0796C28.5128 15.078 28.3444 15.1452 28.2187 15.2667L26.644 16.84L26.1213 16.3187C26.0597 16.2551 25.9861 16.2044 25.9047 16.1696C25.8233 16.1348 25.7358 16.1165 25.6473 16.1159C25.5588 16.1152 25.471 16.1322 25.3892 16.1659C25.3073 16.1995 25.2329 16.2491 25.1704 16.3118C25.1079 16.3745 25.0585 16.449 25.0251 16.5309C24.9917 16.6129 24.975 16.7007 24.9759 16.7892C24.9768 16.8777 24.9953 16.9652 25.0303 17.0465C25.0654 17.1278 25.1162 17.2013 25.18 17.2627L26.1747 18.2533C26.2364 18.3154 26.3097 18.3646 26.3906 18.3982C26.4714 18.4318 26.5581 18.449 26.6456 18.4489C26.7331 18.4487 26.8198 18.4313 26.9005 18.3975C26.9812 18.3637 27.0545 18.3143 27.116 18.252ZM6.036 9.936L9.44533 7.82267C9.63782 7.70356 9.79682 7.53741 9.90734 7.33987C10.0179 7.14233 10.0763 6.91991 10.0771 6.69355C10.0779 6.4672 10.021 6.24436 9.91192 6.04605C9.80279 5.84773 9.64497 5.68046 9.45333 5.56L6.044 3.41333C5.84229 3.28627 5.6102 3.21561 5.37191 3.20871C5.13362 3.20181 4.89783 3.25893 4.68911 3.37412C4.48039 3.4893 4.30637 3.65834 4.18517 3.86363C4.06397 4.06891 4.00003 4.30294 4 4.54133V8.80267C4.00039 9.04012 4.06413 9.27317 4.18463 9.47777C4.30514 9.68238 4.47805 9.85113 4.68552 9.96662C4.893 10.0821 5.12753 10.1402 5.36492 10.1348C5.60231 10.1294 5.83397 10.0608 6.036 9.936ZM8.74267 6.688L5.33333 8.80267V4.54133L8.74267 6.688ZM32 16.6667C32 19.24 29.9067 21.3333 27.3333 21.3333C26.2123 21.3312 25.1295 20.9259 24.2825 20.1916C23.4356 19.4572 22.881 18.4427 22.72 17.3333H19.9467C19.7857 18.4427 19.2311 19.4572 18.3841 20.1916C17.5372 20.9259 16.4543 21.3312 15.3333 21.3333C14.2123 21.3315 13.1293 20.9263 12.2822 20.1919C11.4352 19.4575 10.8807 18.4428 10.72 17.3333H9.976C8.68 17.3333 7.50933 16.8013 6.66667 15.944V22.6667C6.66667 24.872 8.46133 26.6667 10.6667 26.6667H10.72C11.0453 24.4093 12.9867 22.6667 15.3333 22.6667C17.9067 22.6667 20 24.76 20 27.3333C20 29.9067 17.9067 32 15.3333 32C14.2123 31.9981 13.1293 31.593 12.2822 30.8586C11.4352 30.1241 10.8807 29.1095 10.72 28H10.6667C7.72533 28 5.33333 25.608 5.33333 22.6667V13.1987C3.82866 12.8895 2.4766 12.071 1.50508 10.8811C0.533559 9.69123 0.0019962 8.20278 0 6.66667C0 2.99067 2.99067 0 6.66667 0C10.3427 0 13.3333 2.99067 13.3333 6.66667C13.331 8.42275 12.6365 10.1071 11.4005 11.3546C10.1645 12.6021 8.48666 13.3121 6.73067 13.3307C6.87887 14.0826 7.28344 14.7597 7.8753 15.2465C8.46717 15.7333 9.20965 15.9996 9.976 16H10.72C11.0453 13.7427 12.9867 12 15.3333 12C16.4544 12.0019 17.5374 12.407 18.3844 13.1414C19.2314 13.8759 19.786 14.8905 19.9467 16H22.72C22.881 14.8906 23.4356 13.8761 24.2825 13.1418C25.1295 12.4074 26.2123 12.0021 27.3333 12C29.9067 12 32 14.0933 32 16.6667ZM12 27.3333C12 29.1707 13.496 30.6667 15.3333 30.6667C17.1707 30.6667 18.6667 29.1707 18.6667 27.3333C18.6667 25.496 17.1707 24 15.3333 24C13.496 24 12 25.496 12 27.3333ZM6.66667 12C9.608 12 12 9.608 12 6.66667C12 3.72533 9.608 1.33333 6.66667 1.33333C3.72533 1.33333 1.33333 3.72533 1.33333 6.66667C1.33333 9.608 3.72533 12 6.66667 12ZM18.6667 16.6667C18.6667 14.8293 17.1707 13.3333 15.3333 13.3333C13.496 13.3333 12 14.8293 12 16.6667C12 18.504 13.496 20 15.3333 20C17.1707 20 18.6667 18.504 18.6667 16.6667ZM30.6667 16.6667C30.6667 14.8293 29.1707 13.3333 27.3333 13.3333C25.496 13.3333 24 14.8293 24 16.6667C24 18.504 25.496 20 27.3333 20C29.1707 20 30.6667 18.504 30.6667 16.6667ZM13.3333 27.3333C13.3333 27.5101 13.4036 27.6797 13.5286 27.8047C13.6536 27.9298 13.8232 28 14 28C14.1768 28 14.3464 27.9298 14.4714 27.8047C14.5964 27.6797 14.6667 27.5101 14.6667 27.3333C14.6667 27.1565 14.5964 26.987 14.4714 26.8619C14.3464 26.7369 14.1768 26.6667 14 26.6667C13.8232 26.6667 13.6536 26.7369 13.5286 26.8619C13.4036 26.987 13.3333 27.1565 13.3333 27.3333ZM16 27.3333C16 27.5101 16.0702 27.6797 16.1953 27.8047C16.3203 27.9298 16.4899 28 16.6667 28C16.8435 28 17.013 27.9298 17.1381 27.8047C17.2631 27.6797 17.3333 27.5101 17.3333 27.3333C17.3333 27.1565 17.2631 26.987 17.1381 26.8619C17.013 26.7369 16.8435 26.6667 16.6667 26.6667C16.4899 26.6667 16.3203 26.7369 16.1953 26.8619C16.0702 26.987 16 27.1565 16 27.3333ZM32 27.3333C32 29.9067 29.9067 32 27.3333 32C26.2119 31.9978 25.1288 31.5921 24.2818 30.8572C23.4347 30.1223 22.8804 29.1072 22.72 27.9973C22.7107 27.9987 22.7027 28.004 22.692 28.004L22.0173 28.0267H21.9947C21.8227 28.0222 21.6592 27.9515 21.5381 27.8293C21.4171 27.7071 21.348 27.5429 21.3452 27.3709C21.3425 27.1989 21.4063 27.0325 21.5234 26.9065C21.6404 26.7805 21.8016 26.7046 21.9733 26.6947L22.648 26.672C22.672 26.6693 22.6947 26.68 22.7173 26.6813C22.8751 25.5688 23.4287 24.5505 24.2766 23.8131C25.1244 23.0757 26.2097 22.6687 27.3333 22.6667C29.9067 22.6667 32 24.76 32 27.3333ZM30.6667 27.3333C30.6667 25.496 29.1707 24 27.3333 24C25.496 24 24 25.496 24 27.3333C24 29.1707 25.496 30.6667 27.3333 30.6667C29.1707 30.6667 30.6667 29.1707 30.6667 27.3333Z" fill="#2288FF"/>
  </g>
  <defs>
    <clipPath id="clip0_706_208">
      <rect width="32" height="32" fill="white"/>
    </clipPath>
  </defs>
</svg>
