<svg width="32" height="32" viewBox="0 0 32 32" fill="none" xmlns="http://www.w3.org/2000/svg">
  <g clip-path="url(#clip0_705_203)">
    <path d="M16 32C24.8366 32 32 24.8366 32 16C32 7.16344 24.8366 0 16 0C7.16344 0 0 7.16344 0 16C0 24.8366 7.16344 32 16 32Z" fill="#0091E2"/>
    <path d="M25.8531 14.4219C25.8031 14.3813 25.3499 14.0406 24.3937 14.0406C24.1406 14.0406 23.8874 14.0594 23.6374 14.1062C23.4531 12.8344 22.4031 12.2156 22.3562 12.1875L22.0999 12.0375L21.9312 12.2812C21.7187 12.6094 21.5656 12.9688 21.4749 13.35C21.3031 14.075 21.4062 14.7562 21.7749 15.3375C21.3312 15.5844 20.6156 15.6469 20.4718 15.65H8.65619C8.34682 15.65 8.09682 15.9 8.09682 16.2094C8.08432 17.2438 8.25932 18.2719 8.61244 19.2437C9.01869 20.3125 9.62494 21.0969 10.4124 21.5781C11.2937 22.1187 12.7281 22.4281 14.3562 22.4281C15.0906 22.4313 15.8249 22.3625 16.5468 22.2281C17.5499 22.0437 18.5156 21.6937 19.4031 21.1906C20.1343 20.7656 20.7937 20.2281 21.3531 19.5938C22.2874 18.5344 22.8468 17.3531 23.2624 16.3062H23.4281C24.4531 16.3062 25.0843 15.8969 25.4312 15.5531C25.6624 15.3344 25.8437 15.0688 25.9593 14.7719L26.0312 14.5562L25.8531 14.4219ZM9.74994 15.3094H11.3343C11.4093 15.3094 11.4718 15.2469 11.4718 15.1719V13.7625C11.4718 13.6875 11.4093 13.625 11.3343 13.6219H9.74994C9.67494 13.6219 9.61244 13.6844 9.61244 13.7594V15.1719C9.61244 15.25 9.67494 15.3094 9.74994 15.3094ZM11.9343 15.3094H13.5187C13.5937 15.3094 13.6562 15.2469 13.6562 15.1719V13.7625C13.6562 13.6875 13.5937 13.625 13.5187 13.6219H11.9343C11.8562 13.6219 11.7937 13.6844 11.7937 13.7625V15.1719C11.7937 15.25 11.8562 15.3094 11.9343 15.3094ZM14.1468 15.3125H15.7312C15.8062 15.3125 15.8687 15.25 15.8687 15.175V13.7656C15.8687 13.6906 15.8062 13.6281 15.7312 13.625H14.1468C14.0718 13.625 14.0093 13.6875 14.0093 13.7625V15.175C14.0093 15.25 14.0718 15.3094 14.1468 15.3125ZM16.3374 15.3125H17.9218C17.9968 15.3125 18.0593 15.25 18.0624 15.175V13.7656C18.0624 13.6875 17.9999 13.625 17.9218 13.625H16.3374C16.2624 13.625 16.1999 13.6875 16.1999 13.7625V15.175C16.1999 15.25 16.2593 15.3125 16.3374 15.3125ZM11.9312 13.2812H13.5156C13.5906 13.2812 13.6531 13.2188 13.6531 13.1406V11.7312C13.6531 11.6562 13.5906 11.5938 13.5156 11.5938H11.9312C11.8531 11.5938 11.7937 11.6562 11.7906 11.7312V13.1406C11.7937 13.2188 11.8562 13.2812 11.9312 13.2812ZM14.1468 13.2812H15.7312C15.8062 13.2812 15.8687 13.2188 15.8687 13.1406V11.7312C15.8687 11.6562 15.8062 11.5938 15.7312 11.5938H14.1468C14.0718 11.5938 14.0093 11.6562 14.0093 11.7312V13.1406C14.0093 13.2188 14.0718 13.2812 14.1468 13.2812ZM16.3374 13.2812H17.9218C17.9999 13.2812 18.0593 13.2188 18.0624 13.1406V11.7312C18.0624 11.6531 17.9999 11.5938 17.9218 11.5938H16.3374C16.2624 11.5938 16.1999 11.6562 16.1999 11.7312V13.1406C16.1999 13.2188 16.2593 13.2812 16.3374 13.2812ZM16.3374 11.2531H17.9218C17.9999 11.2531 18.0624 11.1906 18.0624 11.1125V9.7C18.0624 9.625 17.9999 9.5625 17.9218 9.5625H16.3374C16.2624 9.5625 16.1999 9.625 16.1999 9.7V11.1125C16.1999 11.1906 16.2593 11.2531 16.3374 11.2531ZM18.5437 15.3125H20.1281C20.2031 15.3125 20.2656 15.25 20.2656 15.175V13.7656C20.2656 13.6875 20.2031 13.6281 20.1281 13.625H18.5437C18.4687 13.625 18.4062 13.6875 18.4062 13.7625V15.175C18.4062 15.25 18.4687 15.3125 18.5437 15.3125Z" fill="white"/>
  </g>
  <defs>
    <clipPath id="clip0_705_203">
      <rect width="32" height="32" fill="white"/>
    </clipPath>
  </defs>
</svg>
