<svg width="32" height="32" viewBox="0 0 32 32" fill="none" xmlns="http://www.w3.org/2000/svg">
  <path d="M29.3886 19.8601C29.2666 19.3074 28.7653 18.6628 27.754 18.6628C27.5473 18.6628 27.3213 18.6888 27.064 18.7421C26.592 18.8394 26.19 18.8868 25.836 18.9028C28.5913 14.2094 30.38 7.69009 28.6086 5.42676C26.2746 2.44476 23.1326 1.99943 21.468 1.99943L21.3113 2.00009C20.692 2.01009 20.0493 2.08609 19.4026 2.22609L17.014 2.74209C16.6886 2.70143 16.3573 2.67276 16.012 2.66676H15.992H15.9813L15.88 2.66609C14.818 2.66609 13.8493 2.89143 12.986 3.31476L12.152 2.98609C11.0053 2.53409 9.27996 1.99609 7.57329 1.99609C7.47729 1.99609 7.38196 1.99809 7.28596 2.00143C5.60462 2.06209 4.16062 2.70009 3.10929 3.84609C1.79729 5.27676 1.19996 7.36943 1.33529 10.0668C1.34196 10.2061 2.97396 24.0001 7.59996 24.0001H7.61662L7.65929 23.9994C8.25996 23.9848 8.83262 23.7434 9.36796 23.2814C9.77662 23.5881 10.3053 23.7694 10.798 23.8414C11.1233 23.9181 11.7086 24.0268 12.41 24.0268C13.266 24.0268 14.038 23.8514 14.7033 23.5348C14.7026 24.1214 14.6993 24.8641 14.6926 25.8134L14.692 25.8634L14.6953 25.9134C14.76 26.8594 14.9233 27.7121 15.1693 28.3808C15.87 30.2868 17.08 31.3368 18.5766 31.3368C18.6386 31.3368 18.702 31.3348 18.766 31.3308C19.9966 31.2548 21.244 30.5634 22.102 29.4828C23.0306 28.3128 23.2453 27.0781 23.328 26.1321L23.3333 26.0741V26.0154V23.2961L23.402 23.3028L23.6926 23.3281L23.7206 23.3308L23.7486 23.3321C23.8313 23.3361 23.9166 23.3374 24.0026 23.3374C25.0073 23.3374 26.244 23.0768 27.08 22.6881C27.8793 22.3174 29.706 21.2988 29.3886 19.8601Z" fill="white"/>
  <path d="M22 22.6666C22 22.5299 22.008 22.4159 22.012 22.2899C22.0054 22.1226 22 21.9999 22 21.9999C22 21.9999 22.008 21.9939 22.0214 21.9852C22.1207 20.2032 22.612 19.5166 23.138 19.1252C23.0647 19.0232 22.98 18.9132 22.9007 18.8086C22.6787 18.5172 22.402 18.1559 22.106 17.6926L22.0514 17.5872C22.0067 17.4779 21.8987 17.2892 21.7614 17.0412C20.9727 15.6146 19.3314 12.6466 20.4547 10.7719C20.9467 9.95055 21.8694 9.47722 23.202 9.36055C22.6574 7.81189 20.6167 4.07655 15.99 3.99989C15.9887 3.99989 15.9874 3.99989 15.986 3.99989C11.9587 3.93455 10.6354 7.59455 10.2047 9.78122C10.798 9.52989 11.4754 9.37722 12.0954 9.37722C12.1047 9.37722 12.1147 9.37722 12.124 9.37722C13.6507 9.38855 14.7007 10.2032 15.006 11.6132C15.2294 12.6479 15.3367 13.5532 15.334 14.3819C15.3274 16.1946 14.962 17.1479 14.6394 17.9892L14.5367 18.2612C14.454 18.4839 14.3667 18.6912 14.284 18.8859C14.2 19.0846 14.126 19.2612 14.072 19.4206C14.3947 19.4939 14.648 19.5972 14.822 19.6739L14.9227 19.7179C14.954 19.7312 14.9854 19.7466 15.014 19.7639C15.5794 20.1079 15.9314 20.6366 16.0067 21.2526C16.0474 21.5846 16.0407 23.8479 16.0267 25.8226C16.0847 26.6792 16.23 27.3986 16.422 27.9199C16.6947 28.6626 17.376 30.0806 18.6847 29.9992C19.598 29.9426 20.476 29.3866 21.0587 28.6532C21.684 27.8659 21.9147 26.9952 22.0014 26.0146V22.6666H22Z" fill="#0277BD"/>
  <path d="M10.076 19.2781C9.00065 18.1561 8.47665 16.6467 8.67332 15.2407C8.86332 13.8841 8.75599 12.5561 8.69799 11.8421C8.67865 11.6041 8.66599 11.4267 8.66665 11.3287C8.66665 11.3234 8.66799 11.3187 8.66865 11.3134C8.66865 11.3107 8.66732 11.3087 8.66732 11.3061C8.74799 9.29207 9.52465 6.11474 11.6627 4.22607C10.6213 3.81607 8.92532 3.2754 7.33332 3.3334C4.83865 3.42407 2.42399 5.1494 2.66665 10.0001C2.75799 11.8201 4.81465 22.7354 7.62665 22.6667C8.02865 22.6567 8.44599 22.3987 8.87465 21.8827C9.55265 21.0674 10.2113 20.3281 10.68 19.8134C10.47 19.6541 10.2673 19.4781 10.076 19.2781ZM24.682 9.82074C24.692 9.9234 24.6833 10.0114 24.6673 10.0927C24.688 10.7061 24.622 11.3014 24.5547 11.8774C24.5053 12.3014 24.4547 12.7394 24.4407 13.1787C24.4267 13.6087 24.4873 14.0334 24.5513 14.4827C24.7013 15.5347 24.8573 16.7221 24.0413 18.1074C24.1913 18.3047 24.3233 18.4881 24.4287 18.6654C27.502 13.6821 28.7407 7.75807 27.5587 6.24807C25.77 3.96274 23.294 3.3014 21.3327 3.3334C20.7187 3.3434 20.1607 3.42607 19.684 3.5294C23.068 5.1694 24.5753 8.68407 24.682 9.82074ZM27.3333 20.0474C25.5567 20.4141 24.702 20.2187 24.2873 19.9634C24.2207 20.0114 24.154 20.0521 24.092 20.0901C23.844 20.2401 23.4513 20.4787 23.3553 21.9447C23.4107 21.9554 23.4593 21.9614 23.5193 21.9741L23.8093 22.0001C24.6893 22.0401 25.842 21.7934 26.518 21.4794C27.9747 20.8034 28.7687 19.7514 27.3333 20.0474ZM14.682 21.4127C14.6573 21.2141 14.55 21.0534 14.354 20.9247L14.282 20.8934C14.0413 20.7874 13.7687 20.6667 13.3333 20.6667H13.3307C13.246 20.6734 13.162 20.6794 13.0773 20.6794C13.0427 20.6794 13.0087 20.6747 12.974 20.6734C12.658 20.9167 12.2087 21.1047 11.0967 21.3334C9.10999 21.8394 10.2827 22.4367 11.0447 22.5294C11.782 22.7141 13.5347 22.9387 14.6987 21.9901C14.6953 21.6914 14.69 21.4861 14.682 21.4127Z" fill="#0277BD"/>
  <path d="M13.7873 12.3339C13.5927 12.5353 13.2853 12.7113 12.946 12.6566C12.394 12.5673 11.9707 11.9013 12.0013 11.6513C12.0307 11.4019 12.502 11.2719 13.0533 11.3613C13.2447 11.3926 13.4187 11.4466 13.5653 11.5133C13.352 11.0546 12.966 10.7899 12.3773 10.7253C11.334 10.6093 10.2267 11.1546 10.004 11.4566C10.0087 11.5299 10.0173 11.6239 10.026 11.7346C10.088 12.4993 10.2027 13.9239 9.99266 15.4259C9.85399 16.4159 10.2547 17.5386 11.0373 18.3559C11.542 18.8826 12.1313 19.2159 12.7127 19.3146C12.7867 18.9959 12.9187 18.6853 13.0547 18.3646C13.13 18.1879 13.21 17.9999 13.2853 17.7966L13.3933 17.5119C13.6887 16.7419 13.9933 15.9453 13.9993 14.3766C14.002 13.7733 13.928 13.0846 13.7873 12.3339ZM23.2313 14.6713C23.162 14.1853 23.0907 13.6819 23.108 13.1359C23.1233 12.6413 23.178 12.1746 23.2307 11.7233C23.272 11.3679 23.304 11.0266 23.3227 10.6899C22.4633 10.7613 21.8927 11.0093 21.622 11.4286C21.734 11.3906 21.8607 11.3606 22.0007 11.3426C22.5953 11.2653 23.0293 11.4366 23.0793 11.7673C23.116 12.0093 22.9107 12.2373 22.8207 12.3246C22.636 12.5039 22.4033 12.6193 22.1667 12.6499C22.124 12.6553 22.0807 12.6579 22.0387 12.6579C21.8033 12.6579 21.5787 12.5773 21.406 12.4579C21.4807 13.7733 22.4507 15.5326 22.928 16.3959C23.03 16.5806 23.1087 16.7279 23.174 16.8546C23.436 16.1086 23.3393 15.4286 23.2313 14.6713Z" fill="#0277BD"/>
</svg>
