<svg width="32" height="29" viewBox="0 0 32 29" fill="none" xmlns="http://www.w3.org/2000/svg">
  <path d="M13.3139 22.434L12.695 16.0643L10.3059 17.0581L9.20542 24.2217C9.12322 24.7579 9.32846 25.285 9.72461 25.6313L14.2923 23.7312C13.7498 23.5148 13.3706 23.0168 13.3139 22.434Z" fill="#DADADA"/>
  <path d="M10.4331 17.1577L9.34486 24.2428C9.25258 24.8426 9.55116 25.4355 10.0894 25.7177L11.7393 26.5826C11.9116 26.6733 12.1132 26.6813 12.2929 26.607L16.4168 24.8914C16.4804 24.8644 16.4846 24.805 16.4846 24.7875C16.4841 24.77 16.4778 24.7111 16.4131 24.6867L14.2668 23.8758C13.6559 23.6451 13.2369 23.0979 13.1738 22.4482L12.5735 16.2667L10.4331 17.1577ZM12.0416 26.9385C11.8925 26.9385 11.7446 26.9029 11.6088 26.8319L9.95845 25.9669C9.31463 25.6291 8.9556 24.919 9.06697 24.1999L10.1674 17.0368C10.1748 16.9885 10.2066 16.9477 10.2522 16.9286L12.6414 15.9342C12.6817 15.9167 12.7294 15.9204 12.7676 15.9432C12.8058 15.966 12.8307 16.0058 12.8355 16.0503L13.4538 22.4206C13.5069 22.9631 13.8563 23.4203 14.3665 23.6133L16.5122 24.4237C16.6639 24.4804 16.7631 24.6215 16.7657 24.7832C16.7684 24.9444 16.674 25.0887 16.525 25.1507L12.4006 26.8669C12.285 26.9151 12.1635 26.9385 12.0416 26.9385Z" fill="#41404D"/>
  <path d="M3.13564 25.8901C3.1139 25.8901 3.09268 25.8854 3.07306 25.8753L1.89043 25.284C1.64383 25.1312 1.5033 24.8793 1.5033 24.6036V10.1644C1.5033 9.49456 1.90316 8.89636 2.52099 8.63915L15.4138 3.24308C15.4848 3.21338 15.5681 3.24679 15.5983 3.31838C15.6285 3.38998 15.5941 3.47271 15.5225 3.50241L2.62918 8.89848C2.11635 9.1122 1.7849 9.60912 1.7849 10.1644V24.6036C1.7849 24.7818 1.87559 24.944 2.02726 25.039L3.19822 25.6234C3.26822 25.6584 3.29633 25.7427 3.26133 25.8122C3.23693 25.8615 3.18761 25.8901 3.13564 25.8901Z" fill="#41404D"/>
  <path d="M17.2457 2.77734C17.1901 2.77734 17.1375 2.74446 17.1153 2.68931C17.0861 2.61719 17.1211 2.53551 17.1927 2.50635L19.3623 1.63237C19.577 1.54327 20.0167 1.42819 20.3004 1.57032L21.4014 2.06936C21.4719 2.10118 21.5037 2.18444 21.4714 2.25497C21.439 2.32551 21.3568 2.35679 21.2852 2.32498L20.1795 1.82435C20.022 1.74639 19.6964 1.79783 19.4689 1.89329L17.2982 2.76727C17.2807 2.77416 17.2632 2.77734 17.2457 2.77734Z" fill="#41404D"/>
  <path d="M3.64093 9.3032L20.7859 2.17031C21.2154 1.99159 21.6885 2.30713 21.6885 2.77223V17.1085C21.6885 17.7163 21.3247 18.2647 20.7652 18.5007L3.616 25.7385C3.18591 25.9199 2.71021 25.6044 2.71021 25.1377V10.6985C2.71021 10.0881 3.07772 9.5376 3.64093 9.3032Z" fill="white"/>
  <path d="M4.50964 10.7397V8.94194L5.35339 8.59086V10.3887L4.50964 10.7397Z" fill="#DADADA"/>
  <path d="M21.0381 2.26003C20.9713 2.26003 20.9044 2.27329 20.8397 2.30034L3.69428 9.4327C3.18251 9.64695 2.85106 10.1439 2.85106 10.6986V25.1378C2.85106 25.3128 2.93432 25.4682 3.08016 25.5642C3.22547 25.6612 3.40101 25.6777 3.56117 25.6087L20.7098 18.3713C21.2189 18.1566 21.5477 17.6607 21.5477 17.1081V2.77233C21.5477 2.59891 21.465 2.44352 21.3202 2.34701C21.2338 2.28973 21.1362 2.26003 21.0381 2.26003ZM3.3623 25.9312C3.2085 25.9312 3.0563 25.8866 2.92478 25.7991C2.70204 25.6517 2.56946 25.4045 2.56946 25.1378V10.6986C2.56946 10.0293 2.96879 9.43058 3.58662 9.1739L20.7315 2.04048C20.976 1.93865 21.2545 1.96517 21.4767 2.11313C21.6973 2.26003 21.8293 2.50663 21.8293 2.77233V17.1081C21.8293 17.7747 21.4332 18.3719 20.8196 18.6307L3.67095 25.8686C3.57177 25.9099 3.46677 25.9312 3.3623 25.9312Z" fill="#41404D"/>
  <path d="M11.4938 20.4463V18.9359L12.3375 18.5848V20.0952L11.4938 20.4463Z" fill="#DADADA"/>
  <path d="M21.6883 16.142L2.71057 24.1558Z" fill="#DADADA"/>
  <path d="M2.71023 24.2969C2.65507 24.2969 2.6031 24.2645 2.5803 24.211C2.5506 24.1394 2.58401 24.0566 2.65507 24.0264L21.6333 16.0121C21.7065 15.9814 21.7882 16.0164 21.8179 16.0874C21.8476 16.159 21.8142 16.2417 21.7431 16.272L2.76538 24.2857C2.74682 24.2937 2.72826 24.2969 2.71023 24.2969Z" fill="#41404D"/>
  <path d="M21.6883 16.1422V17.1063C21.6883 17.713 21.324 18.2624 20.7624 18.4984L3.6169 25.74C3.18309 25.9188 2.71057 25.6059 2.71057 25.1397V24.156L21.6883 16.1422Z" fill="#DADADA"/>
  <path d="M2.85106 24.2495V25.1394C2.85106 25.3123 2.93273 25.4661 3.07645 25.5621C3.22176 25.6597 3.39889 25.6772 3.56382 25.6093L20.7077 18.3687C21.2179 18.154 21.5472 17.6586 21.5472 17.106V16.354L2.85106 24.2495ZM3.3623 25.9307C3.20638 25.9307 3.05206 25.8851 2.91947 25.7965C2.70045 25.6496 2.56946 25.4035 2.56946 25.1394V24.1562C2.56946 24.0994 2.60393 24.0485 2.65537 24.0268L21.6331 16.0125C21.6771 15.995 21.727 15.9982 21.7657 16.0252C21.8049 16.0512 21.8288 16.0952 21.8288 16.1419V17.106C21.8288 17.7721 21.4316 18.3693 20.8169 18.6281L3.67201 25.8691C3.57178 25.9105 3.46677 25.9307 3.3623 25.9307Z" fill="#41404D"/>
  <path d="M4.09607 10.9116L20.5113 4.08262V15.1558L4.09607 22.0835V10.9116Z" fill="#F4C151"/>
  <path d="M4.23701 11.0056V21.8715L20.3706 15.0626V4.29325L4.23701 11.0056ZM4.09647 22.2241C4.06889 22.2241 4.04185 22.2167 4.01851 22.2003C3.97927 22.1748 3.95593 22.1308 3.95593 22.0836V10.9117C3.95593 10.855 3.98987 10.8035 4.04238 10.7818L20.4576 3.95225C20.5005 3.93475 20.5504 3.93952 20.5891 3.96551C20.6283 3.9915 20.6522 4.03551 20.6522 4.08218V15.1559C20.6522 15.2127 20.6183 15.2636 20.5663 15.2859L4.15109 22.213C4.13359 22.2204 4.11503 22.2241 4.09647 22.2241Z" fill="#41404D"/>
  <path d="M2.71021 24.1558L21.6885 16.1457Z" fill="white"/>
  <path d="M2.71023 24.2964C2.65507 24.2964 2.6031 24.264 2.5803 24.2105C2.5506 24.1389 2.58401 24.0561 2.65507 24.0259L21.6339 16.0164C21.7065 15.9851 21.7887 16.0201 21.8184 16.0912C21.8486 16.1633 21.8147 16.2455 21.7436 16.2757L2.76538 24.2852C2.74682 24.2932 2.72826 24.2964 2.71023 24.2964Z" fill="#41404D"/>
  <path d="M12.7905 9.64504L28.0491 3.29703C28.354 3.17029 28.6897 3.39408 28.6897 3.72448V13.5482C28.6897 13.885 28.4882 14.1889 28.178 14.3199L12.9857 20.7315C12.6479 20.8742 12.2745 20.6265 12.2745 20.2601V10.4183C12.2745 10.0804 12.4782 9.77497 12.7905 9.64504Z" fill="white"/>
  <path d="M5.86345 4.74L10.3198 2.84674C10.6815 2.69294 11.0829 2.95864 11.0829 3.35161V13.0502C11.0829 13.3817 10.8872 13.6824 10.5839 13.8165L6.1477 15.7777C5.77382 15.9432 5.35327 15.669 5.35327 15.2606V5.5111C5.35327 5.17487 5.55427 4.87153 5.86345 4.74Z" fill="white"/>
  <path d="M10.5358 2.94251C10.4817 2.94251 10.4276 2.95365 10.3746 2.97592L5.9188 4.86972C5.66053 4.97896 5.49401 5.23087 5.49401 5.51088V15.2599C5.49401 15.4062 5.56454 15.5356 5.68704 15.6163C5.81061 15.6958 5.95592 15.708 6.09062 15.6491L10.5268 13.688C10.7792 13.5761 10.9426 13.3258 10.9426 13.05V3.35139C10.9426 3.21245 10.8758 3.08835 10.7591 3.01145C10.6907 2.96584 10.6138 2.94251 10.5358 2.94251ZM5.9188 15.9668C5.78409 15.9668 5.64992 15.9286 5.53325 15.8522C5.33226 15.7213 5.2124 15.4996 5.2124 15.2599V5.51088C5.2124 5.11738 5.44681 4.76418 5.80849 4.61039L10.2648 2.71712C10.478 2.62591 10.7209 2.64871 10.9145 2.77652C11.1086 2.90486 11.2237 3.11964 11.2237 3.35139V13.05C11.2237 13.4371 10.9951 13.7882 10.6408 13.9447L6.20464 15.9063C6.1129 15.9472 6.01532 15.9668 5.9188 15.9668Z" fill="#41404D"/>
  <path d="M10.1137 6.71402L6.47571 8.22757V9.21875L10.1069 7.70838L10.1137 6.71402Z" fill="white"/>
  <path d="M6.61669 8.32153V9.00724L9.96676 7.61354L9.97153 6.92571L6.61669 8.32153ZM6.47615 9.35938C6.44857 9.35938 6.42153 9.35089 6.39766 9.33551C6.35895 9.30899 6.33508 9.26551 6.33508 9.21831V8.22766C6.33508 8.17091 6.36955 8.11947 6.42206 8.09773L10.0601 6.58418C10.1025 6.56455 10.1524 6.57145 10.1921 6.5969C10.2314 6.62342 10.2547 6.66797 10.2542 6.71517L10.2478 7.709C10.2473 7.76468 10.2134 7.81559 10.1609 7.83734L6.52971 9.34824C6.51274 9.35566 6.49418 9.35938 6.47615 9.35938Z" fill="#41404D"/>
  <path d="M10.1137 8.43814L6.47571 9.95169V10.9429L10.1069 9.4325L10.1137 8.43814Z" fill="white"/>
  <path d="M6.61669 10.0456V10.7318L9.96676 9.33815L9.97153 8.64979L6.61669 10.0456ZM6.47615 11.084C6.44857 11.084 6.42153 11.0755 6.39766 11.0601C6.35895 11.0336 6.33508 10.9901 6.33508 10.9429V9.95174C6.33508 9.89499 6.36955 9.84355 6.42206 9.82181L10.0601 8.30826C10.1025 8.28916 10.1524 8.295 10.1921 8.32151C10.2314 8.3475 10.2547 8.39205 10.2542 8.43925L10.2478 9.43361C10.2473 9.48929 10.2134 9.5402 10.1609 9.56195L6.52971 11.0728C6.51274 11.0803 6.49418 11.084 6.47615 11.084Z" fill="#41404D"/>
  <path d="M7.52799 13.1055C7.47283 13.1055 7.42086 13.0731 7.39806 13.0185C7.36783 12.9474 7.4023 12.8647 7.47389 12.835L9.0007 12.2002C9.0723 12.1694 9.1545 12.2039 9.18473 12.2766C9.21496 12.3476 9.18049 12.4304 9.10836 12.4595L7.58208 13.0943C7.56405 13.1023 7.54602 13.1055 7.52799 13.1055Z" fill="#41404D"/>
  <path d="M5.50663 6.18262C5.45147 6.18262 5.3995 6.14974 5.3767 6.09564C5.34647 6.02405 5.38094 5.94185 5.45253 5.91215L11.0294 3.59144C11.1 3.56333 11.1832 3.59622 11.2129 3.66728C11.2432 3.7394 11.2092 3.8216 11.1371 3.8513L5.56072 6.17148C5.54269 6.17944 5.52466 6.18262 5.50663 6.18262Z" fill="#41404D"/>
  <path d="M28.6897 14.1034V8.45485L24.3554 10.3062C24.0462 10.4377 23.8452 10.7416 23.8452 11.0773V16.1562L28.6897 14.1034Z" fill="#DADADA"/>
  <path d="M28.2281 3.40118C28.1857 3.40118 28.1438 3.40966 28.1029 3.42663L12.8449 9.77464C12.584 9.88283 12.4154 10.1358 12.4154 10.4185V20.2597C12.4154 20.3865 12.4758 20.4994 12.5813 20.5689C12.6869 20.6394 12.8136 20.6527 12.9314 20.6018L28.1226 14.1901C28.3819 14.0809 28.5489 13.829 28.5489 13.5484V3.72415C28.5489 3.61437 28.497 3.51679 28.4058 3.45633C28.3511 3.41974 28.2896 3.40118 28.2281 3.40118ZM12.7871 20.9131C12.6604 20.9131 12.5347 20.876 12.426 20.8038C12.2435 20.6824 12.1343 20.4787 12.1343 20.2597V10.4185C12.1343 10.0212 12.3708 9.66698 12.7367 9.51531L27.9948 3.16677C28.1814 3.08935 28.3936 3.10897 28.5617 3.22193C28.7298 3.33383 28.8305 3.52156 28.8305 3.72415V13.5484C28.8305 13.943 28.5956 14.2962 28.2318 14.4495L13.0406 20.8616C12.9589 20.8961 12.8725 20.9131 12.7871 20.9131Z" fill="#41404D"/>
  <path d="M27.1634 6.27352C27.1093 6.27352 27.0552 6.28466 27.0027 6.30693L20.2628 9.1919C20.0045 9.30168 19.838 9.55359 19.838 9.8336V17.6899L27.5707 14.4352V6.6824C27.5707 6.54345 27.5044 6.41883 27.3883 6.34246C27.3188 6.29685 27.2419 6.27352 27.1634 6.27352ZM19.6975 18.042C19.6699 18.042 19.6428 18.0346 19.619 18.0187C19.5803 17.9927 19.5564 17.9492 19.5564 17.9015V9.8336C19.5564 9.4401 19.7903 9.0869 20.1525 8.93311L26.8924 6.04813C27.1082 5.95744 27.3511 5.97919 27.5436 6.10806C27.7367 6.2364 27.8518 6.45012 27.8518 6.6824V14.5286C27.8518 14.5853 27.8178 14.6368 27.7658 14.6585L19.7516 18.0314C19.7341 18.0383 19.716 18.042 19.6975 18.042Z" fill="#41404D"/>
  <path d="M14.1073 11.5736L17.9368 9.94657C18.2481 9.81451 18.5928 10.0426 18.5928 10.3804V18.365L13.6687 20.4438V12.2365C13.6687 11.9475 13.8416 11.6866 14.1073 11.5736Z" fill="white"/>
  <path d="M18.1227 10.049C18.0786 10.049 18.0346 10.0581 17.9922 10.0761L14.1627 11.7037C13.9485 11.7944 13.8095 12.0033 13.8095 12.2361V20.2313L18.4525 18.2707V10.3805C18.4525 10.2675 18.3979 10.1668 18.304 10.1042C18.2483 10.0676 18.1858 10.049 18.1227 10.049ZM13.669 20.584C13.6414 20.584 13.6144 20.5766 13.5916 20.5606C13.5518 20.5347 13.5284 20.4906 13.5284 20.4434V12.2361C13.5284 11.8898 13.7342 11.579 14.0524 11.4438L17.8819 9.81677C18.0717 9.73669 18.2876 9.75631 18.4594 9.8698C18.6312 9.98329 18.7341 10.1747 18.7341 10.3805V18.3646C18.7341 18.4213 18.7002 18.4722 18.6482 18.494L13.7241 20.5734C13.7066 20.5803 13.6875 20.584 13.669 20.584Z" fill="#41404D"/>
  <path d="M14.7143 16.4082C14.6591 16.4082 14.6071 16.3759 14.5843 16.3212C14.5541 16.2502 14.5886 16.1674 14.6602 16.1377L17.7011 14.8729C17.7727 14.8427 17.8543 14.8766 17.8851 14.9487C17.9153 15.0198 17.8808 15.1025 17.8087 15.1322L14.7684 16.3971C14.7503 16.405 14.7323 16.4082 14.7143 16.4082Z" fill="#41404D"/>
  <path d="M21.0028 13.1595L25.5222 11.2795V14.3283L21.0028 16.2354V13.1595Z" fill="#F4C151"/>
  <path d="M21.1434 13.2534V16.0233L25.3818 14.2345V11.4895L21.1434 13.2534ZM21.0024 16.376C20.9753 16.376 20.9483 16.3686 20.9244 16.3526C20.8857 16.3267 20.8618 16.2826 20.8618 16.2354V13.1595C20.8618 13.1028 20.8958 13.0514 20.9488 13.0296L25.4688 11.1491C25.5117 11.13 25.561 11.1358 25.6003 11.1618C25.6395 11.1878 25.6629 11.2313 25.6629 11.2785V14.3279C25.6629 14.3846 25.6289 14.4355 25.5775 14.4578L21.0575 16.3654C21.04 16.3723 21.0214 16.376 21.0024 16.376Z" fill="#41404D"/>
  <path d="M15.4029 17.0493C15.3478 17.0493 15.2958 17.017 15.2735 16.9623C15.2433 16.8913 15.2772 16.8085 15.3488 16.7788L17.013 16.0873C17.0835 16.0555 17.1662 16.0905 17.1965 16.1631C17.2262 16.2342 17.1928 16.3169 17.1206 16.3466L15.457 17.0382C15.4395 17.0461 15.4209 17.0493 15.4029 17.0493Z" fill="#41404D"/>
  <path d="M21.0153 10.6294C20.9601 10.6294 20.9082 10.597 20.8854 10.5424C20.8551 10.4714 20.8896 10.3886 20.9612 10.3589L26.3398 8.12148C26.4108 8.09072 26.4936 8.12519 26.5233 8.19732C26.5535 8.26891 26.5196 8.35164 26.4474 8.38081L21.0694 10.6183C21.0514 10.6262 21.0333 10.6294 21.0153 10.6294Z" fill="#41404D"/>
  <path d="M12.2747 11.0928C12.2195 11.0928 12.1676 11.0604 12.1448 11.0058C12.1145 10.9347 12.149 10.852 12.2206 10.8223L28.5112 4.0442C28.5822 4.01557 28.665 4.04845 28.6947 4.12004C28.7249 4.19164 28.6909 4.27437 28.6188 4.30407L12.3288 11.0816C12.3108 11.0896 12.2927 11.0928 12.2747 11.0928Z" fill="#41404D"/>
  <path d="M17.0756 13.6957C16.828 14.2913 16.2504 14.6169 15.7859 14.4239C15.3218 14.2308 15.1463 13.5913 15.394 12.9962C15.6416 12.4007 16.2186 12.0745 16.6832 12.2676C17.1477 12.4611 17.3233 13.1002 17.0756 13.6957Z" fill="white"/>
  <path d="M16.3997 12.352C16.0609 12.352 15.7002 12.6251 15.5231 13.0499C15.3062 13.5728 15.4489 14.1312 15.8397 14.2945C16.2337 14.4558 16.7285 14.1635 16.9454 13.6422C17.1623 13.1188 17.0207 12.5609 16.6288 12.397C16.5551 12.3668 16.4782 12.352 16.3997 12.352ZM16.0646 14.6196C15.9516 14.6196 15.8392 14.5989 15.732 14.5539C15.1964 14.3311 14.9869 13.6078 15.2638 12.9422C15.5406 12.2756 16.2014 11.9155 16.7365 12.1377C17.2721 12.3604 17.4827 13.0833 17.2053 13.7499C16.9841 14.2823 16.5169 14.6196 16.0646 14.6196Z" fill="#41404D"/>
  <path d="M25.1362 10.6684L29.7765 8.69663C30.0512 8.57996 30.3556 8.78148 30.3556 9.07952V15.3718C30.3556 15.7033 30.1599 16.004 29.8566 16.1376L25.2104 18.1921C24.9357 18.3136 24.626 18.112 24.626 17.8113V11.4395C24.626 11.1032 24.827 10.7999 25.1362 10.6684Z" fill="#F4C151"/>
  <path d="M29.9404 8.80368C29.9038 8.80368 29.8667 8.81111 29.8317 8.82596L25.1913 10.7982C24.9331 10.9075 24.7665 11.1594 24.7665 11.4394V17.8113C24.7665 17.9062 24.8122 17.9905 24.8922 18.042C24.9713 18.0939 25.0662 18.1024 25.1542 18.0637L29.7999 16.0092C30.0523 15.8979 30.2151 15.6475 30.2151 15.3718V9.07945C30.2151 8.98559 30.17 8.90179 30.0916 8.84982C30.0454 8.81906 29.9934 8.80368 29.9404 8.80368ZM25.0428 18.3687C24.9363 18.3687 24.8302 18.3379 24.7384 18.278C24.5799 18.1746 24.4855 18.0006 24.4855 17.8113V11.4394C24.4855 11.0459 24.7188 10.6927 25.081 10.5389L29.7219 8.56663C29.8953 8.49344 30.091 8.51306 30.2475 8.61489C30.4034 8.71883 30.4967 8.89225 30.4967 9.07945V15.3718C30.4967 15.7589 30.2682 16.11 29.9134 16.2664L25.2682 18.3209C25.1956 18.3527 25.1187 18.3687 25.0428 18.3687Z" fill="#41404D"/>
  <path d="M25.6833 11.7372L29.5128 10.0895V11.8077L25.6833 13.4878V11.7372Z" fill="white"/>
  <path d="M25.8242 11.8301V13.272L29.3721 11.7161V10.3027L25.8242 11.8301ZM25.6831 13.6284C25.6566 13.6284 25.6296 13.6205 25.6062 13.6051C25.567 13.5796 25.5426 13.5351 25.5426 13.4874V11.7373C25.5426 11.6811 25.5765 11.6301 25.628 11.6084L29.4575 9.96015C29.5004 9.94106 29.5508 9.94583 29.5906 9.97129C29.6298 9.9978 29.6537 10.0418 29.6537 10.089V11.8078C29.6537 11.8635 29.6208 11.9144 29.5694 11.9361L25.7399 13.6162C25.7219 13.6247 25.7028 13.6284 25.6831 13.6284Z" fill="#41404D"/>
  <path d="M26.1906 14.8511C26.1355 14.8511 26.0835 14.8187 26.0612 14.7641C26.031 14.693 26.0649 14.6103 26.1365 14.5806L29.1785 13.3152C29.2495 13.2845 29.3323 13.3195 29.3614 13.3916C29.3922 13.4627 29.3583 13.5454 29.2861 13.5751L26.2447 14.8399C26.2267 14.8479 26.2087 14.8511 26.1906 14.8511Z" fill="#41404D"/>
  <path d="M26.8799 15.4927C26.8248 15.4927 26.7728 15.4598 26.75 15.4057C26.7198 15.3341 26.7542 15.2519 26.8258 15.2222L28.4895 14.5301C28.5605 14.4999 28.6433 14.5333 28.673 14.606C28.7032 14.6776 28.6692 14.7598 28.5971 14.7895L26.934 15.4815C26.916 15.4895 26.8979 15.4927 26.8799 15.4927Z" fill="#41404D"/>
</svg>
