<svg width="145" height="143" viewBox="0 0 145 143" fill="none" xmlns="http://www.w3.org/2000/svg">
  <path d="M71.0097 121.474L69.8532 133.418L68.5635 133.297L68.6971 131.917L68.5387 131.902C68.4261 132.043 68.2717 132.223 68.0756 132.44C67.8753 132.661 67.6022 132.848 67.2562 133.002C66.9061 133.159 66.4482 133.211 65.8825 133.158C65.1509 133.089 64.5238 132.846 64.001 132.427C63.4783 132.009 63.0929 131.45 62.8449 130.749C62.5969 130.049 62.517 129.242 62.6054 128.33C62.6944 127.41 62.9282 126.627 63.3065 125.982C63.6845 125.34 64.1686 124.861 64.7587 124.543C65.3485 124.23 66.0054 124.107 66.7295 124.175C67.2876 124.228 67.7255 124.362 68.0433 124.579C68.3607 124.799 68.5984 125.036 68.7564 125.291C68.9141 125.549 69.0342 125.762 69.117 125.93L69.2301 125.94L69.6747 121.348L71.0097 121.474ZM68.9614 128.951C69.0249 128.295 68.9848 127.707 68.841 127.188C68.6969 126.672 68.4537 126.255 68.1115 125.938C67.7689 125.624 67.3299 125.442 66.7944 125.391C66.2363 125.339 65.7563 125.442 65.3545 125.701C64.9485 125.963 64.627 126.336 64.3899 126.82C64.1486 127.307 63.998 127.86 63.9382 128.478C63.879 129.089 63.92 129.648 64.0611 130.156C64.1981 130.667 64.4413 131.084 64.7906 131.406C65.1359 131.732 65.5913 131.921 66.157 131.974C66.7001 132.025 67.1697 131.931 67.5659 131.69C67.9618 131.454 68.2777 131.099 68.5138 130.627C68.7494 130.158 68.8986 129.6 68.9614 128.951Z" fill="currentColor"/>
  <path d="M57.7155 122.436C58.2467 122.589 58.699 122.829 59.0726 123.154C59.445 123.483 59.7018 123.874 59.843 124.329C59.9831 124.788 59.9721 125.289 59.81 125.834C59.6673 126.313 59.4571 126.674 59.1792 126.917C58.9003 127.164 58.5772 127.326 58.2099 127.405C57.8425 127.484 57.4554 127.51 57.0485 127.483C56.6369 127.459 56.2289 127.415 55.8244 127.353C55.2956 127.271 54.868 127.201 54.5418 127.142C54.2108 127.085 53.9601 127.078 53.7897 127.119C53.6157 127.159 53.4978 127.283 53.4362 127.49L53.4233 127.534C53.2633 128.071 53.2863 128.531 53.4924 128.914C53.6949 129.296 54.0926 129.573 54.6857 129.745C55.3005 129.923 55.8226 129.928 56.2519 129.76C56.6812 129.593 57.0122 129.377 57.2448 129.113L58.3376 129.903C57.968 130.348 57.5591 130.66 57.111 130.837C56.6581 131.018 56.1984 131.101 55.732 131.089C55.2608 131.078 54.8141 131.012 54.3921 130.89C54.1228 130.812 53.8233 130.69 53.4935 130.523C53.1589 130.359 52.8571 130.132 52.588 129.841C52.3153 129.549 52.1287 129.174 52.0282 128.715C51.9277 128.256 51.9764 127.694 52.1742 127.03L53.815 121.519L55.1029 121.892L54.7657 123.025L54.8312 123.044C54.9726 122.887 55.1759 122.735 55.4413 122.587C55.7067 122.439 56.0301 122.342 56.4117 122.295C56.7934 122.247 57.2279 122.294 57.7155 122.436ZM57.1753 123.533C56.6659 123.386 56.2068 123.361 55.7981 123.46C55.3857 123.557 55.0434 123.738 54.7711 124.002C54.4951 124.265 54.3053 124.571 54.2015 124.92L53.8513 126.096C53.9253 126.046 54.0632 126.021 54.265 126.021C54.462 126.022 54.6866 126.038 54.9386 126.068C55.1859 126.1 55.4267 126.134 55.6609 126.17C55.8904 126.209 56.077 126.24 56.2207 126.262C56.5684 126.315 56.9023 126.335 57.2226 126.321C57.5381 126.31 57.8137 126.234 58.0493 126.093C58.2801 125.955 58.4442 125.722 58.5415 125.396C58.6744 124.949 58.6094 124.564 58.3464 124.239C58.0787 123.917 57.6883 123.682 57.1753 123.533Z" fill="currentColor"/>
  <path d="M41.6811 123.314L42.9128 123.558C42.8873 123.77 42.8965 123.994 42.9405 124.229C42.9793 124.465 43.0811 124.695 43.2461 124.919C43.411 125.144 43.6674 125.344 44.0152 125.521C44.4913 125.763 44.945 125.855 45.3765 125.799C45.8028 125.743 46.1028 125.55 46.2766 125.217C46.431 124.922 46.4449 124.634 46.3183 124.353C46.1917 124.072 45.9286 123.757 45.5291 123.41L44.5217 122.541C43.9139 122.019 43.5298 121.499 43.3695 120.98C43.2075 120.464 43.2677 119.936 43.5503 119.395C43.7819 118.952 44.1173 118.621 44.5564 118.403C44.9921 118.182 45.4906 118.087 46.0517 118.118C46.6128 118.148 47.1956 118.317 47.8 118.624C48.5934 119.027 49.1607 119.533 49.5017 120.139C49.8427 120.746 49.9104 121.414 49.7049 122.142L48.423 121.847C48.5325 121.376 48.4915 120.96 48.2997 120.599C48.1047 120.236 47.7623 119.931 47.2727 119.682C46.7156 119.398 46.2118 119.291 45.7615 119.359C45.306 119.43 44.9914 119.631 44.8177 119.963C44.6773 120.232 44.6543 120.505 44.7486 120.782C44.8412 121.063 45.0596 121.348 45.4039 121.638L46.5425 122.599C47.1672 123.129 47.5546 123.655 47.7046 124.178C47.8495 124.702 47.7825 125.231 47.5034 125.765C47.2753 126.201 46.9503 126.524 46.5283 126.735C46.103 126.943 45.6259 127.034 45.097 127.008C44.5648 126.979 44.0252 126.826 43.4782 126.548C42.7084 126.157 42.1917 125.681 41.9282 125.123C41.6614 124.562 41.579 123.959 41.6811 123.314Z" fill="currentColor"/>
  <path d="M32.2387 116.639L33.403 117.111C33.3377 117.314 33.3044 117.535 33.3031 117.774C33.2964 118.013 33.3528 118.258 33.4725 118.509C33.5921 118.76 33.806 119.005 34.1143 119.244C34.5364 119.571 34.9648 119.748 35.3997 119.774C35.8292 119.8 36.1608 119.667 36.3946 119.373C36.6025 119.113 36.6708 118.833 36.5997 118.533C36.5286 118.233 36.3296 117.875 36.0028 117.459L35.1775 116.416C34.679 115.79 34.4002 115.207 34.3412 114.668C34.2797 114.131 34.4391 113.624 34.8193 113.148C35.1311 112.757 35.5235 112.495 35.9966 112.364C36.4667 112.23 36.9746 112.231 37.5204 112.367C38.0661 112.502 38.6069 112.778 39.1427 113.193C39.8461 113.739 40.3078 114.341 40.5279 115.001C40.748 115.661 40.6879 116.328 40.3478 117.004L39.1437 116.473C39.3407 116.031 39.3793 115.615 39.2593 115.225C39.1363 114.832 38.8578 114.468 38.4238 114.131C37.93 113.748 37.4552 113.548 36.9995 113.53C36.5385 113.513 36.1911 113.651 35.9573 113.944C35.7684 114.181 35.694 114.444 35.7341 114.734C35.7718 115.027 35.9324 115.348 36.2159 115.697L37.1527 116.855C37.6662 117.493 37.9471 118.083 37.9955 118.623C38.0385 119.165 37.8722 119.671 37.4967 120.142C37.1897 120.527 36.8089 120.783 36.3542 120.909C35.8966 121.034 35.4104 121.033 34.8956 120.907C34.3779 120.779 33.8766 120.526 33.3917 120.15C32.7092 119.621 32.2915 119.057 32.1386 118.46C31.9826 117.859 32.016 117.252 32.2387 116.639Z" fill="currentColor"/>
  <path d="M31.9667 106.849L25.332 112.518L24.4469 111.511L31.0816 105.841L31.9667 106.849ZM23.7761 112.951C23.9487 113.147 24.0297 113.375 24.0194 113.633C24.0066 113.888 23.9051 114.096 23.7151 114.259C23.525 114.421 23.3011 114.491 23.0432 114.467C22.7829 114.44 22.5664 114.329 22.3939 114.132C22.2214 113.936 22.1416 113.71 22.1544 113.455C22.1647 113.197 22.2649 112.987 22.455 112.825C22.645 112.662 22.8702 112.594 23.1306 112.621C23.3885 112.645 23.6036 112.755 23.7761 112.951Z" fill="currentColor"/>
  <path d="M25.664 97.9975C26.0621 98.6774 26.2484 99.3668 26.223 100.066C26.1956 100.761 25.9732 101.419 25.5557 102.041C25.1363 102.659 24.5348 103.191 23.7514 103.637C22.9614 104.087 22.1886 104.337 21.4329 104.388C20.6752 104.436 19.9842 104.298 19.3598 103.973C18.7335 103.646 18.2213 103.142 17.8232 102.462C17.4252 101.782 17.2398 101.094 17.2672 100.399C17.2926 99.7 17.5167 99.0407 17.9394 98.4208C18.3602 97.7977 18.9656 97.2612 19.7556 96.8114C20.539 96.3653 21.3079 96.1193 22.0622 96.0733C22.8146 96.0241 23.504 96.1633 24.1303 96.491C24.7548 96.8154 25.266 97.3176 25.664 97.9975ZM24.6173 98.5935C24.3149 98.077 23.9328 97.728 23.471 97.5464C23.0092 97.3647 22.5141 97.3176 21.9859 97.4048C21.4576 97.492 20.94 97.6799 20.4331 97.9686C19.9261 98.2572 19.5007 98.6062 19.1566 99.0157C18.8126 99.4251 18.6033 99.8734 18.5285 100.361C18.4538 100.848 18.5676 101.349 18.87 101.866C19.1724 102.382 19.5561 102.731 20.0212 102.91C20.4863 103.09 20.9847 103.135 21.5162 103.046C22.0478 102.957 22.5671 102.768 23.074 102.48C23.5809 102.191 24.0047 101.843 24.3454 101.435C24.6862 101.028 24.8923 100.581 24.9637 100.096C25.0351 99.6109 24.9197 99.11 24.6173 98.5935Z" fill="currentColor"/>
  <path d="M16.9171 92.531L21.8856 90.8351L22.3296 92.1004L14.0702 94.9195L13.6413 93.6972L14.9318 93.2567L14.8942 93.1495C14.407 93.0996 13.9672 92.9215 13.5747 92.6153C13.1786 92.3102 12.8714 91.8467 12.6532 91.2248C12.4575 90.6672 12.401 90.1402 12.4837 89.6437C12.5627 89.1485 12.7927 88.7057 13.1737 88.3156C13.551 87.9266 14.091 87.6123 14.7936 87.3724L20.0417 85.5811L20.4858 86.8463L15.3236 88.6083C14.6748 88.8298 14.2283 89.1703 13.9841 89.6299C13.7364 90.0906 13.7154 90.6141 13.9211 91.2003C14.0628 91.6042 14.2773 91.9352 14.5646 92.1933C14.8507 92.4479 15.1942 92.6088 15.5951 92.6761C15.996 92.7433 16.4367 92.695 16.9171 92.531Z" fill="currentColor"/>
  <path d="M18.4105 68.9393C18.3754 69.6657 18.1609 70.2984 17.767 70.8373C17.3693 71.3761 16.8262 71.7866 16.1375 72.069C15.4451 72.3512 14.6372 72.4707 13.714 72.4273C12.7983 72.3843 12.0113 72.1899 11.353 71.8443C10.6947 71.4986 10.1955 71.0372 9.85555 70.46C9.51558 69.8828 9.36332 69.2272 9.39877 68.4932C9.42618 67.9257 9.54243 67.4818 9.74752 67.1615C9.949 66.8372 10.1731 66.5937 10.4199 66.4309C10.6631 66.2641 10.8627 66.135 11.0188 66.0438L11.0243 65.9303L6.73359 65.7287L6.79828 64.3893L18.4218 64.9354L18.3593 66.2294L17.0199 66.1664L17.0122 66.3253C17.1664 66.4312 17.3602 66.5806 17.5935 66.7736C17.8231 66.9664 18.0244 67.2356 18.1973 67.5812C18.3665 67.9266 18.4375 68.3793 18.4105 68.9393ZM17.216 68.7012C17.242 68.1639 17.1239 67.7033 16.8618 67.3194C16.5959 66.9353 16.2179 66.635 15.7278 66.4186C15.2339 66.202 14.6578 66.0782 13.9994 66.0473C13.3486 66.0167 12.7746 66.0845 12.2774 66.2508C11.7763 66.4169 11.3807 66.6789 11.0903 67.0369C10.7962 67.3947 10.636 67.846 10.6097 68.3908C10.5823 68.9583 10.7051 69.4381 10.9782 69.8301C11.2476 70.2182 11.6256 70.5185 12.1121 70.7309C12.5951 70.9394 13.143 71.0581 13.756 71.0869C14.3765 71.116 14.9448 71.0479 15.461 70.8826C15.9736 70.7132 16.3883 70.4483 16.7053 70.0878C17.0187 69.7233 17.189 69.2611 17.216 68.7012Z" fill="currentColor"/>
  <path d="M19.5584 59.3523L11.0707 57.3216L11.391 56.0195L19.8787 58.0502L19.5584 59.3523ZM9.8189 56.321C9.75647 56.5748 9.61606 56.773 9.39768 56.9155C9.1802 57.0543 8.94989 57.0946 8.70675 57.0364C8.46361 56.9783 8.27764 56.8383 8.14883 56.6167C8.02093 56.3913 7.98819 56.1518 8.05062 55.898C8.11305 55.6442 8.25301 55.4479 8.47049 55.3091C8.68887 55.1666 8.91963 55.1244 9.16277 55.1826C9.40591 55.2408 9.59143 55.3825 9.71933 55.6079C9.84814 55.8295 9.88133 56.0672 9.8189 56.321Z" fill="currentColor"/>
  <path d="M18.3039 43.3777L18.1086 44.6107C17.8937 44.597 17.6688 44.6183 17.4341 44.6746C17.1975 44.7258 16.9696 44.8392 16.7506 45.0148C16.5316 45.1903 16.3401 45.4551 16.1762 45.8091C15.9517 46.2938 15.8769 46.7482 15.9518 47.1724C16.0248 47.5916 16.2323 47.8782 16.5742 48.0322C16.8782 48.1691 17.1691 48.1672 17.4471 48.0266C17.7251 47.8859 18.0311 47.6083 18.365 47.1937L19.1995 46.1489C19.7 45.5186 20.2086 45.1099 20.7251 44.923C21.2381 44.7345 21.7727 44.7655 22.3287 45.0159C22.7846 45.2212 23.1317 45.5354 23.3699 45.9584C23.6097 46.378 23.7258 46.8664 23.7181 47.4238C23.7105 47.9812 23.5642 48.5675 23.2793 49.1827C22.9052 49.9905 22.4195 50.5797 21.8221 50.9504C21.2247 51.321 20.5549 51.4244 19.8127 51.2604L20.0574 49.9749C20.5366 50.0578 20.9541 49.9945 21.3099 49.785C21.6673 49.5721 21.9614 49.2164 22.1922 48.718C22.4548 48.1509 22.5424 47.6462 22.4551 47.2039C22.3658 46.7566 22.1502 46.4559 21.8083 46.3019C21.532 46.1775 21.2561 46.1695 20.9804 46.278C20.7013 46.3849 20.4228 46.6168 20.145 46.9735L19.2229 48.1534C18.7144 48.8009 18.2 49.2131 17.6798 49.39C17.1577 49.562 16.6221 49.5243 16.0729 49.277C15.624 49.0748 15.2849 48.7704 15.0557 48.364C14.8281 47.9541 14.7169 47.4865 14.7222 46.9613C14.7291 46.4327 14.8615 45.89 15.1193 45.3331C15.4822 44.5494 15.9398 44.0119 16.4921 43.7207C17.046 43.4259 17.6499 43.3116 18.3039 43.3777Z" fill="currentColor"/>
  <path d="M28.8156 39.9172C28.3367 40.5805 27.7661 41.0407 27.104 41.2977C26.4419 41.5547 25.7403 41.6174 24.9992 41.4857C24.2581 41.354 23.531 41.0378 22.818 40.5371C22.0927 40.0277 21.5479 39.4461 21.1837 38.7923C20.8187 38.1333 20.6515 37.4558 20.6821 36.76C20.7118 36.0589 20.9573 35.3889 21.4185 34.7501C21.7778 34.2526 22.1945 33.8696 22.6688 33.601C23.143 33.3324 23.6396 33.1882 24.1584 33.1684C24.6772 33.1486 25.182 33.2647 25.6727 33.5168L24.8877 34.6039C24.5024 34.4583 24.0811 34.4401 23.6238 34.5493C23.1656 34.6534 22.7635 34.9449 22.4176 35.424C22.1116 35.8478 21.9549 36.2977 21.9474 36.7739C21.9391 37.2447 22.0722 37.7107 22.3465 38.1719C22.62 38.6277 23.0264 39.0451 23.5658 39.4238C24.1176 39.8113 24.6602 40.0628 25.1935 40.1782C25.7291 40.2905 26.2242 40.2679 26.6789 40.1105C27.1358 39.9501 27.5195 39.6548 27.8299 39.2249C28.0339 38.9424 28.1695 38.6511 28.2366 38.3511C28.3037 38.0511 28.3019 37.756 28.2312 37.4657C28.1605 37.1754 28.0194 36.905 27.8078 36.6546L28.5928 35.5675C28.97 35.9249 29.24 36.3436 29.4027 36.8235C29.5645 37.2982 29.6016 37.8032 29.5139 38.3387C29.4254 38.869 29.1926 39.3951 28.8156 39.9172Z" fill="currentColor"/>
  <path d="M34.6117 33.1063L28.5455 26.832L29.5223 25.9135L35.5885 32.1877L34.6117 33.1063ZM28.0312 25.3192C27.8408 25.4983 27.6147 25.5887 27.353 25.5904C27.094 25.5896 26.8777 25.4993 26.7039 25.3196C26.5301 25.1398 26.449 24.9224 26.4604 24.6673C26.4747 24.4095 26.577 24.1911 26.7674 24.0121C26.9578 23.8331 27.1825 23.744 27.4414 23.7448C27.7031 23.743 27.9209 23.832 28.0947 24.0118C28.2684 24.1915 28.3482 24.4102 28.334 24.668C28.3225 24.9231 28.2216 25.1402 28.0312 25.3192Z" fill="currentColor"/>
  <path d="M42.182 30.939L35.6305 20.8853L36.7247 20.1918L37.4816 21.3533L37.616 21.2681C37.6165 21.0885 37.6262 20.8536 37.6451 20.5636C37.6652 20.2683 37.7638 19.9548 37.9408 19.6228C38.1189 19.2857 38.4479 18.9651 38.9279 18.6609C39.5485 18.2675 40.1959 18.0747 40.87 18.0824C41.5442 18.0901 42.198 18.2923 42.8317 18.6889C43.4654 19.0855 44.0324 19.6677 44.5329 20.4357C45.0375 21.2101 45.3421 21.9654 45.4467 22.7018C45.5493 23.435 45.4667 24.1061 45.1991 24.7152C44.9294 25.3211 44.4874 25.8188 43.8731 26.2081C43.3996 26.5082 42.9698 26.6707 42.5837 26.6957C42.1956 26.7175 41.8596 26.6771 41.5757 26.5745C41.2898 26.4687 41.0618 26.3756 40.8918 26.295L40.7958 26.3558L43.3146 30.2212L42.182 30.939ZM39.1263 23.8355C39.4861 24.3877 39.8852 24.8231 40.3234 25.1418C40.7595 25.4573 41.2119 25.6347 41.6806 25.674C42.1471 25.7101 42.6076 25.5842 43.0619 25.2962C43.5354 24.9961 43.8499 24.6219 44.0053 24.1736C44.1619 23.7202 44.1826 23.2317 44.0675 22.7082C43.9536 22.1795 43.727 21.655 43.3879 21.1345C43.0529 20.6204 42.671 20.2078 42.2421 19.8966C41.8145 19.5802 41.3621 19.4028 40.885 19.3644C40.409 19.3208 39.931 19.4511 39.4511 19.7553C38.9904 20.0473 38.6788 20.4085 38.5162 20.8388C38.3515 21.2661 38.3237 21.7366 38.4325 22.2506C38.5393 22.7614 38.7706 23.2897 39.1263 23.8355Z" fill="currentColor"/>
  <path d="M48.6356 10.7603L53.0124 21.5422L51.7651 22.0346L47.3884 11.2528L48.6356 10.7603Z" fill="currentColor"/>
  <path d="M61.6054 19.0802L59.9315 10.515L61.2488 10.2646L62.9227 18.8298L61.6054 19.0802ZM60.3223 8.96014C60.0656 9.00895 59.8271 8.96367 59.6069 8.82431C59.3904 8.68425 59.2582 8.49153 59.2102 8.24618C59.1623 8.00082 59.2124 7.77345 59.3606 7.56406C59.5125 7.35397 59.7168 7.22452 59.9736 7.17572C60.2304 7.12691 60.467 7.17254 60.6835 7.31261C60.9037 7.45197 61.0378 7.64433 61.0857 7.88969C61.1337 8.13504 61.0817 8.36277 60.9298 8.57286C60.7816 8.78224 60.5791 8.91134 60.3223 8.96014Z" fill="currentColor"/>
  <path d="M70.3882 12.75V18H69.0473V9.27273H70.3428V10.6364H70.4564C70.661 10.1932 70.9716 9.83712 71.3882 9.56818C71.8049 9.29545 72.3428 9.15909 73.0019 9.15909C73.5928 9.15909 74.1098 9.2803 74.553 9.52273C74.9962 9.76136 75.3409 10.125 75.5871 10.6136C75.8333 11.0985 75.9564 11.7121 75.9564 12.4545V18H74.6155V12.5455C74.6155 11.8598 74.4375 11.3258 74.0814 10.9432C73.7253 10.5568 73.2367 10.3636 72.6155 10.3636C72.1875 10.3636 71.8049 10.4564 71.4678 10.642C71.1344 10.8277 70.8712 11.0985 70.678 11.4545C70.4848 11.8106 70.3882 12.2424 70.3882 12.75Z" fill="currentColor"/>
  <path d="M82.9263 19.1764C82.1002 19.0194 81.4232 18.7018 80.8953 18.2236C80.3718 17.7424 80.0125 17.142 79.8173 16.4225C79.6266 15.6999 79.617 14.9 79.7884 14.0226C79.9599 13.1453 80.271 12.4024 80.7218 11.7941C81.1771 11.1828 81.7298 10.7442 82.38 10.4783C83.0346 10.2095 83.7489 10.1486 84.5229 10.2958C84.9695 10.3806 85.3959 10.5388 85.8022 10.7703C86.2086 11.0017 86.5577 11.3187 86.8495 11.7212C87.1421 12.1199 87.341 12.6127 87.4463 13.1995C87.5517 13.7863 87.5262 14.4794 87.37 15.2786L87.261 15.8363L80.6521 14.5801L80.8744 13.4425L86.1437 14.4441C86.2381 13.9608 86.2257 13.5111 86.1063 13.0952C85.9906 12.6799 85.7774 12.329 85.4668 12.0425C85.1598 11.7567 84.7682 11.5685 84.2919 11.4779C83.7672 11.3782 83.2878 11.422 82.8536 11.6094C82.4239 11.7938 82.0664 12.0728 81.7811 12.4466C81.4958 12.8203 81.307 13.2433 81.2147 13.7154L81.0665 14.4738C80.9401 15.1206 80.9446 15.6902 81.08 16.1824C81.2198 16.6717 81.4677 17.0716 81.8239 17.3822C82.1807 17.6891 82.6252 17.8931 83.1573 17.9943C83.5034 18.06 83.8255 18.0711 84.1234 18.0275C84.4259 17.9809 84.6987 17.8785 84.9418 17.7204C85.1857 17.5585 85.3926 17.3395 85.5623 17.0633L86.7653 17.6621C86.547 18.0679 86.2478 18.4043 85.8675 18.6713C85.488 18.9346 85.0479 19.1132 84.5471 19.2069C84.0471 19.2969 83.5068 19.2868 82.9263 19.1764Z" fill="currentColor"/>
  <path d="M100.298 25.4675L105.062 18.1557L106.156 18.8492L105.437 19.9536L105.514 20.0022C105.884 19.7256 106.318 19.5862 106.817 19.5839C107.316 19.5817 107.786 19.7204 108.227 20.0003C108.311 20.053 108.413 20.1205 108.536 20.2027C108.659 20.285 108.75 20.3496 108.81 20.3965L108.066 21.539C108.033 21.5051 107.955 21.4351 107.83 21.3288C107.71 21.2214 107.574 21.1201 107.424 21.0248C107.066 20.7977 106.697 20.6695 106.318 20.6402C105.945 20.6098 105.592 20.6729 105.259 20.8298C104.932 20.9854 104.66 21.2283 104.445 21.5583L101.43 26.1853L100.298 25.4675Z" fill="currentColor"/>
  <path d="M109.94 32.9342C109.328 32.3581 108.928 31.7277 108.742 31.0431C108.561 30.3583 108.584 29.6621 108.81 28.9543C109.041 28.2464 109.467 27.5711 110.089 26.9284C110.71 26.2858 111.376 25.8309 112.088 25.5639C112.804 25.2967 113.509 25.2267 114.203 25.3539C114.902 25.4809 115.538 25.8143 116.112 26.3541C116.444 26.6654 116.718 27.0274 116.935 27.4399C117.153 27.8524 117.276 28.3058 117.304 28.8C117.334 29.2915 117.235 29.8113 117.005 30.3595C116.775 30.9078 116.377 31.4746 115.811 32.0601L115.416 32.4686L110.515 27.8601L111.321 27.0268L115.229 30.7011C115.571 30.3471 115.805 29.9638 115.93 29.5511C116.057 29.141 116.068 28.7323 115.961 28.3251C115.857 27.9205 115.628 27.5522 115.275 27.22C114.886 26.8542 114.457 26.6329 113.989 26.5563C113.526 26.4795 113.072 26.5209 112.628 26.6804C112.184 26.84 111.795 27.0927 111.46 27.4385L110.923 27.9941C110.465 28.4679 110.16 28.9474 110.007 29.4326C109.859 29.9177 109.851 30.3861 109.983 30.838C110.118 31.287 110.383 31.6971 110.778 32.0682C111.034 32.3095 111.3 32.4921 111.576 32.6159C111.856 32.7396 112.142 32.8006 112.434 32.799C112.728 32.7946 113.021 32.7225 113.315 32.5825L114.006 33.7313C113.601 33.9538 113.166 34.0746 112.699 34.0937C112.236 34.11 111.767 34.0227 111.293 33.8318C110.822 33.6382 110.371 33.339 109.94 32.9342Z" fill="currentColor"/>
  <path d="M124.117 39.0244L123.133 38.2438C123.253 38.067 123.348 37.8643 123.416 37.6357C123.49 37.4079 123.505 37.1568 123.461 36.8823C123.417 36.6078 123.28 36.3123 123.052 35.996C122.739 35.563 122.378 35.2729 121.968 35.1258C121.564 34.9795 121.208 35.0141 120.901 35.2296C120.628 35.4212 120.484 35.6708 120.467 35.9783C120.451 36.2859 120.541 36.6855 120.737 37.1772L121.235 38.4103C121.537 39.1518 121.64 39.7897 121.545 40.3241C121.453 40.8563 121.157 41.2977 120.658 41.6482C120.249 41.9355 119.799 42.0757 119.308 42.0687C118.819 42.0648 118.332 41.9209 117.847 41.6369C117.362 41.3529 116.921 40.9361 116.524 40.3864C116.003 39.6647 115.729 38.9564 115.704 38.2614C115.679 37.5664 115.924 36.9426 116.441 36.39L117.446 37.239C117.133 37.6072 116.979 37.9955 116.984 38.4038C116.991 38.8151 117.156 39.2434 117.477 39.6887C117.843 40.1955 118.242 40.5216 118.674 40.6671C119.112 40.8135 119.484 40.7789 119.791 40.5634C120.039 40.3892 120.184 40.1574 120.228 39.8679C120.274 39.5761 120.21 39.2228 120.037 38.8078L119.464 37.4326C119.151 36.6758 119.048 36.031 119.154 35.4984C119.265 34.9667 119.567 34.5278 120.06 34.1817C120.463 33.8987 120.901 33.7604 121.372 33.7669C121.846 33.7765 122.313 33.9142 122.771 34.1801C123.231 34.4491 123.641 34.8324 124.001 35.3299C124.506 36.0301 124.748 36.6886 124.726 37.3056C124.707 37.9256 124.504 38.4985 124.117 39.0244Z" fill="currentColor"/>
  <path d="M117.485 47.3909L128.427 42.463L128.971 43.6386L127.707 44.2079L127.774 44.3522C127.954 44.3794 128.187 44.4238 128.474 44.4855C128.767 44.549 129.067 44.6922 129.374 44.915C129.687 45.1397 129.963 45.5099 130.202 46.0255C130.511 46.6923 130.615 47.3555 130.516 48.0151C130.416 48.6747 130.125 49.2856 129.643 49.8477C129.16 50.4099 128.501 50.8792 127.665 51.2557C126.822 51.6352 126.026 51.8215 125.275 51.8147C124.528 51.8063 123.869 51.6257 123.296 51.2728C122.727 50.9184 122.29 50.4113 121.984 49.7513C121.749 49.2426 121.645 48.7972 121.672 48.4151C121.703 48.0314 121.79 47.708 121.931 47.4451C122.075 47.1805 122.2 46.9709 122.303 46.8162L122.255 46.7131L118.049 48.6077L117.485 47.3909ZM125.002 45.4511C124.401 45.7218 123.912 46.0482 123.533 46.4304C123.159 46.811 122.92 47.2281 122.817 47.6816C122.717 48.1336 122.78 48.6036 123.006 49.0917C123.242 49.6004 123.573 49.9642 124 50.1832C124.432 50.404 124.918 50.4969 125.457 50.4619C126.001 50.4288 126.556 50.2846 127.122 50.0295C127.682 49.7775 128.146 49.4645 128.516 49.0904C128.89 48.7182 129.129 48.3012 129.232 47.8392C129.341 47.3792 129.275 46.8913 129.037 46.3758C128.807 45.8808 128.489 45.5217 128.081 45.2984C127.676 45.0735 127.209 44.9763 126.681 45.0066C126.156 45.0354 125.596 45.1836 125.002 45.4511Z" fill="currentColor"/>
  <path d="M125.104 58.7422C124.916 57.9772 124.933 57.2623 125.156 56.5975C125.38 55.9365 125.779 55.3656 126.356 54.8851C126.933 54.4082 127.659 54.0649 128.536 53.8551C129.42 53.6436 130.231 53.6189 130.97 53.7812C131.709 53.9471 132.331 54.2733 132.837 54.7598C133.344 55.2501 133.691 55.8777 133.879 56.6428C134.068 57.4079 134.05 58.1209 133.826 58.782C133.604 59.4467 133.202 60.018 132.621 60.4958C132.042 60.9772 131.31 61.3237 130.425 61.5352C129.549 61.745 128.743 61.7665 128.007 61.5997C127.273 61.4366 126.652 61.1099 126.145 60.6197C125.64 60.1331 125.293 59.5073 125.104 58.7422ZM126.276 58.462C126.419 59.0431 126.686 59.4856 127.076 59.7894C127.467 60.0932 127.928 60.277 128.458 60.3409C128.989 60.4048 129.538 60.3689 130.105 60.2331C130.672 60.0974 131.179 59.8808 131.625 59.5834C132.07 59.2859 132.398 58.9134 132.608 58.466C132.817 58.0185 132.851 57.5042 132.708 56.9231C132.565 56.3419 132.296 55.8999 131.902 55.597C131.508 55.2941 131.043 55.1111 130.509 55.0481C129.975 54.9851 129.424 55.0215 128.857 55.1572C128.289 55.2929 127.785 55.5091 127.343 55.8056C126.901 56.1022 126.577 56.4738 126.371 56.9204C126.164 57.3669 126.133 57.8808 126.276 58.462Z" fill="currentColor"/>
  <path d="M131.906 66.4234L126.662 66.6698L126.597 65.3305L135.315 64.9209L135.378 66.2149L134.015 66.2789L134.021 66.3924C134.473 66.5759 134.844 66.8694 135.133 67.273C135.425 67.6763 135.588 68.2072 135.619 68.8655C135.648 69.4557 135.552 69.9779 135.331 70.4319C135.114 70.8858 134.767 71.2471 134.291 71.516C133.819 71.7847 133.212 71.9364 132.47 71.9713L126.931 72.2315L126.866 70.8922L132.315 70.6362C132.999 70.604 133.524 70.4011 133.889 70.0275C134.258 69.6538 134.427 69.1566 134.397 68.5361C134.377 68.1086 134.266 67.7308 134.064 67.4028C133.863 67.0786 133.579 66.8283 133.214 66.6521C132.849 66.4758 132.413 66.3996 131.906 66.4234Z" fill="currentColor"/>
  <path d="M132.508 83.0989L132.344 81.8591C132.554 81.8123 132.763 81.7291 132.972 81.6095C133.184 81.4942 133.37 81.3216 133.53 81.0918C133.69 80.8619 133.798 80.554 133.854 80.1679C133.931 79.6394 133.873 79.1817 133.681 78.7948C133.492 78.4122 133.211 78.1945 132.84 78.1419C132.51 78.0951 132.232 78.1781 132.006 78.3909C131.779 78.6036 131.565 78.9558 131.364 79.4475L130.862 80.6848C130.562 81.4303 130.191 81.965 129.749 82.2888C129.312 82.6131 128.791 82.7325 128.187 82.6469C127.692 82.5767 127.27 82.3715 126.922 82.0313C126.573 81.6949 126.322 81.2577 126.171 80.7198C126.02 80.1819 125.993 79.5774 126.091 78.9065C126.219 78.0257 126.517 77.3237 126.984 76.8008C127.45 76.2778 128.063 75.9915 128.82 75.9421L128.951 77.2462C128.469 77.3002 128.087 77.4775 127.806 77.7781C127.524 78.0825 127.344 78.5064 127.264 79.0499C127.174 79.6684 127.234 80.178 127.444 80.5788C127.656 80.9839 127.948 81.2128 128.32 81.2654C128.62 81.308 128.886 81.2386 129.119 81.0575C129.356 80.8768 129.557 80.5763 129.722 80.1558L130.269 78.7644C130.572 78.0001 130.947 77.4603 131.395 77.1451C131.846 76.8341 132.37 76.7209 132.966 76.8054C133.454 76.8746 133.865 77.0725 134.2 77.3993C134.535 77.7299 134.774 78.1483 134.919 78.6547C135.062 79.1648 135.09 79.7234 135.001 80.3306C134.877 81.1852 134.592 81.8296 134.145 82.2637C133.699 82.7015 133.153 82.9799 132.508 83.0989Z" fill="currentColor"/>
  <path d="M123.757 88.3835C123.941 87.8616 124.205 87.4217 124.552 87.0637C124.902 86.7069 125.309 86.4676 125.773 86.3459C126.241 86.2254 126.744 86.2569 127.281 86.4405C127.755 86.602 128.106 86.8258 128.334 87.112C128.567 87.3995 128.712 87.7274 128.772 88.0959C128.831 88.4643 128.836 88.8503 128.787 89.2537C128.74 89.6619 128.675 90.0658 128.591 90.4654C128.479 90.9878 128.385 91.41 128.309 91.7319C128.234 92.0587 128.213 92.3076 128.245 92.4788C128.276 92.6534 128.394 92.7757 128.598 92.8454L128.641 92.8601C129.172 93.0412 129.635 93.0371 130.03 92.848C130.425 92.6624 130.724 92.2783 130.929 91.6957C131.141 91.0916 131.174 90.5728 131.029 90.1391C130.884 89.7055 130.686 89.3675 130.434 89.1254L131.285 88.0713C131.712 88.457 132.002 88.8763 132.156 89.3292C132.313 89.7869 132.372 90.2473 132.334 90.7106C132.298 91.1786 132.208 91.6199 132.062 92.0346C131.969 92.299 131.83 92.5918 131.645 92.9129C131.463 93.2388 131.218 93.5296 130.912 93.7852C130.604 94.0443 130.217 94.2145 129.751 94.2955C129.285 94.3766 128.724 94.3052 128.068 94.0813L122.626 92.2239L123.07 90.9586L124.189 91.3404L124.212 91.276C124.062 91.1291 123.921 90.9206 123.787 90.6507C123.653 90.3808 123.572 90.0552 123.545 89.6739C123.519 89.2925 123.589 88.8624 123.757 88.3835ZM124.83 88.9656C124.654 89.466 124.605 89.9214 124.681 90.3318C124.757 90.7458 124.92 91.0936 125.17 91.3751C125.419 91.6603 125.716 91.8616 126.06 91.9791L127.222 92.3755C127.176 92.2999 127.158 92.1618 127.168 91.9611C127.181 91.7653 127.209 91.5427 127.252 91.2933C127.298 91.0488 127.345 90.8108 127.394 90.5794C127.446 90.3528 127.486 90.1686 127.516 90.0266C127.589 89.6831 127.626 89.3519 127.63 89.0329C127.636 88.7187 127.575 88.4417 127.446 88.2017C127.32 87.9665 127.095 87.7938 126.773 87.6837C126.332 87.5332 125.941 87.582 125.601 87.8302C125.264 88.0832 125.007 88.4616 124.83 88.9656Z" fill="currentColor"/>
  <path d="M121.143 95.269L131.255 101.027L130.578 102.184L126.845 100.058L126.788 100.157C126.869 100.316 126.968 100.53 127.084 100.796C127.202 101.068 127.258 101.392 127.253 101.768C127.249 102.15 127.104 102.585 126.817 103.076C126.445 103.71 125.958 104.178 125.356 104.48C124.753 104.782 124.08 104.902 123.335 104.84C122.59 104.777 121.819 104.519 121.023 104.066C120.22 103.608 119.603 103.076 119.173 102.47C118.745 101.865 118.511 101.23 118.47 100.566C118.432 99.9036 118.597 99.2586 118.964 98.631C119.247 98.1472 119.555 97.8057 119.886 97.6066C120.221 97.4094 120.538 97.2914 120.838 97.2526C121.14 97.2156 121.385 97.194 121.573 97.1877L121.654 97.0504L120.489 96.3869L121.143 95.269ZM124.269 98.5657C123.696 98.2396 123.142 98.0352 122.607 97.9527C122.075 97.872 121.592 97.9215 121.157 98.1013C120.726 98.283 120.375 98.6059 120.103 99.0701C119.82 99.5539 119.712 100.031 119.779 100.5C119.848 100.975 120.053 101.419 120.395 101.832C120.739 102.25 121.18 102.612 121.72 102.92C122.253 103.223 122.782 103.415 123.305 103.496C123.83 103.581 124.314 103.531 124.755 103.347C125.198 103.168 125.563 102.833 125.85 102.343C126.126 101.872 126.237 101.408 126.184 100.951C126.135 100.495 125.944 100.064 125.612 99.6571C125.283 99.2518 124.835 98.888 124.269 98.5657Z" fill="currentColor"/>
  <path d="M113.919 105.84L120.554 111.51L119.669 112.517L113.034 106.847L113.919 105.84ZM121.21 112.967C121.382 112.77 121.599 112.659 121.859 112.632C122.117 112.609 122.341 112.678 122.531 112.84C122.721 113.003 122.822 113.211 122.835 113.467C122.846 113.724 122.765 113.952 122.592 114.148C122.419 114.344 122.204 114.454 121.946 114.478C121.686 114.505 121.461 114.437 121.271 114.274C121.081 114.112 120.981 113.902 120.97 113.644C120.957 113.389 121.037 113.163 121.21 112.967Z" fill="currentColor"/>
  <path d="M112.712 122.831L105.457 113.733L106.517 112.911L113.771 122.009L112.712 122.831Z" fill="currentColor"/>
  <path d="M97.901 118.472L101.944 126.206L100.749 126.814L96.7057 119.08L97.901 118.472ZM102.01 127.804C102.243 127.686 102.485 127.662 102.737 127.734C102.984 127.808 103.166 127.956 103.282 128.177C103.398 128.399 103.414 128.63 103.331 128.872C103.245 129.116 103.085 129.297 102.852 129.415C102.619 129.534 102.379 129.556 102.131 129.483C101.88 129.411 101.696 129.264 101.58 129.042C101.465 128.821 101.45 128.588 101.536 128.345C101.619 128.103 101.777 127.923 102.01 127.804Z" fill="currentColor"/>
  <path d="M87.9104 131.551L87.5862 130.462L91.9304 129.204L92.2547 130.293L87.9104 131.551ZM91.5852 132.664L90.2972 133.037L87.9236 125.065C87.8155 124.702 87.6816 124.445 87.5221 124.294C87.36 124.147 87.186 124.068 87.0003 124.054C86.812 124.046 86.6232 124.069 86.4341 124.124C86.2922 124.165 86.1779 124.206 86.0912 124.247C86.0057 124.291 85.9372 124.327 85.8859 124.353L85.2802 123.275C85.3578 123.217 85.47 123.149 85.6167 123.071C85.7623 122.989 85.9552 122.914 86.1954 122.844C86.5592 122.739 86.939 122.714 87.3348 122.769C87.7269 122.825 88.0851 122.979 88.4095 123.232C88.7302 123.486 88.9629 123.857 89.1078 124.343L91.5852 132.664Z" fill="currentColor"/>
  <path d="M79.3789 120.966C79.6052 120.945 79.8088 120.944 79.9897 120.965C80.1702 120.983 80.296 121.005 80.3672 121.033L80.1417 122.241C79.8093 122.188 79.5198 122.185 79.2731 122.231C79.0264 122.277 78.8165 122.409 78.6436 122.627C78.4664 122.842 78.3182 123.177 78.1987 123.634L78.0155 124.336L82.074 132.765L80.6259 132.901L77.5572 126.205L77.4667 126.214L75.7384 133.362L74.2903 133.498L77.0148 123.197C77.1373 122.733 77.3068 122.342 77.5235 122.025C77.7398 121.704 78.0032 121.457 78.3136 121.283C78.6203 121.11 78.9754 121.004 79.3789 120.966Z" fill="currentColor"/>
</svg>
