<svg width="38" height="38" viewBox="0 0 38 38" fill="none" xmlns="http://www.w3.org/2000/svg">
<path d="M8.20833 6.66668H23.625V12.8333H29.7917V31.3333H8.20833V6.66668ZM6.66435 3.58334C5.81488 3.58334 5.125 4.26792 5.125 5.11237V32.8877C5.125 33.7148 5.81067 34.4167 6.65649 34.4167H31.3435C32.1891 34.4167 32.875 33.7212 32.875 32.8634L32.8745 11.2917L25.1667 3.58334H6.66435ZM16.6873 12.0625C16.6873 14.4945 15.9848 17.3617 14.7989 20.0073C13.6086 22.6625 12.003 24.9357 10.3285 26.2753L12.1467 28.762C16.6599 25.7531 21.6568 23.6899 26.4902 24.3804L27.1958 21.3916C23.0754 20.0181 19.7707 15.9012 19.7707 12.0625H16.6873ZM17.6123 21.2687C18.0246 20.3493 18.3898 19.3951 18.6974 18.4273C19.4244 19.5444 20.3186 20.5697 21.3281 21.4594C19.8145 21.7305 18.3317 22.1752 16.8959 22.7426C17.1498 22.2596 17.3891 21.767 17.6123 21.2687Z" fill="black"/>
</svg>
