<svg width="30" height="30" viewBox="0 0 30 30" fill="none" xmlns="http://www.w3.org/2000/svg">
  <g clip-path="url(#clip0_403_64)">
    <path d="M25 4.1665C13.4895 4.1665 4.16663 13.4894 4.16663 24.9998C4.16427 29.3733 5.53916 33.6365 8.09624 37.1846C10.6533 40.7326 14.2628 43.3854 18.4125 44.7665C19.4541 44.9478 19.8437 44.3228 19.8437 43.7748C19.8437 43.2811 19.8166 41.6415 19.8166 39.8957C14.5833 40.8603 13.2291 38.6207 12.8125 37.4478C12.577 36.8478 11.5625 34.9998 10.677 34.504C9.94788 34.1144 8.90621 33.1498 10.65 33.1248C12.2916 33.0978 13.4625 34.6353 13.8541 35.2603C15.7291 38.4103 18.725 37.5248 19.9208 36.979C20.1041 35.6248 20.65 34.7144 21.25 34.1936C16.6145 33.6728 11.7708 31.8748 11.7708 23.9061C11.7708 21.6394 12.577 19.7665 13.9062 18.3061C13.6979 17.7853 12.9687 15.6498 14.1145 12.7853C14.1145 12.7853 15.8583 12.2394 19.8437 14.9228C21.5397 14.452 23.292 14.2151 25.052 14.2186C26.8229 14.2186 28.5937 14.4519 30.2604 14.9207C34.2437 12.2123 35.9895 12.7873 35.9895 12.7873C37.1354 15.6519 36.4062 17.7873 36.1979 18.3082C37.525 19.7665 38.3333 21.6144 38.3333 23.9061C38.3333 31.9019 33.4645 33.6728 28.8291 34.1936C29.5833 34.8436 30.2354 36.0936 30.2354 38.0478C30.2354 40.8332 30.2083 43.0728 30.2083 43.7769C30.2083 44.3228 30.6 44.9728 31.6416 44.7644C35.7771 43.3682 39.3706 40.7102 41.9164 37.1647C44.4622 33.6192 45.8321 29.3647 45.8333 24.9998C45.8333 13.4894 36.5104 4.1665 25 4.1665Z" fill="currentColor"/>
  </g>
  <defs>
    <clipPath id="clip0_403_64">
      <rect width="50" height="50" fill="currentColor"/>
    </clipPath>
  </defs>
</svg>
