<svg width="30" height="30" viewBox="0 0 30 30" fill="none" xmlns="http://www.w3.org/2000/svg">
  <g clip-path="url(#clip0_403_569)">
    <path d="M14.5834 2.5C7.86903 2.5 2.43067 8.09375 2.43067 15C2.42929 17.6241 3.23131 20.182 4.72294 22.3108C6.21458 24.4397 8.32008 26.0313 10.7407 26.86C11.3484 26.9688 11.5756 26.5937 11.5756 26.265C11.5756 25.9687 11.5598 24.985 11.5598 23.9375C8.50705 24.5162 7.71712 23.1725 7.47407 22.4688C7.33674 22.1088 6.7449 21 6.22841 20.7025C5.80306 20.4688 5.19542 19.89 6.21261 19.875C7.17025 19.8587 7.85324 20.7812 8.08171 21.1562C9.17546 23.0462 10.923 22.515 11.6206 22.1875C11.7275 21.375 12.0459 20.8288 12.3959 20.5163C9.69195 20.2038 6.86643 19.125 6.86643 14.3438C6.86643 12.9838 7.33674 11.86 8.11209 10.9837C7.99056 10.6712 7.56521 9.39 8.23362 7.67125C8.23362 7.67125 9.2508 7.34375 11.5756 8.95375C12.5649 8.67133 13.5871 8.52918 14.6138 8.53125C15.6468 8.53125 16.6798 8.67125 17.652 8.9525C19.9756 7.3275 20.994 7.6725 20.994 7.6725C21.6624 9.39125 21.2371 10.6725 21.1156 10.985C21.8897 11.86 22.3612 12.9688 22.3612 14.3438C22.3612 19.1413 19.5211 20.2038 16.8171 20.5163C17.2571 20.9063 17.6374 21.6563 17.6374 22.8288C17.6374 24.5 17.6216 25.8438 17.6216 26.2663C17.6216 26.5938 17.8501 26.9837 18.4577 26.8587C20.8701 26.021 22.9663 24.4262 24.4514 22.2989C25.9364 20.1716 26.7355 17.6189 26.7362 15C26.7362 8.09375 21.2979 2.5 14.5834 2.5Z" fill="currentColor"/>
  </g>
  <defs>
    <clipPath id="clip0_403_569">
      <rect width="29.1667" height="30" fill="white"/>
    </clipPath>
  </defs>
</svg>
