<svg width="50" height="50" viewBox="0 0 50 50" fill="none" xmlns="http://www.w3.org/2000/svg">
  <g clip-path="url(#clip0_403_60)">
    <path d="M25 45.8332C13.4937 45.8332 4.16663 36.5061 4.16663 24.9998C4.16663 13.4936 13.4937 4.1665 25 4.1665C36.5062 4.1665 45.8333 13.4936 45.8333 24.9998C45.8333 36.5061 36.5062 45.8332 25 45.8332ZM18.5208 27.4373L18.5479 27.4228L20.3604 33.4019C20.5937 34.0498 20.9145 34.1665 21.3041 34.1123C21.6958 34.0603 21.902 33.8498 22.1583 33.604L24.6333 31.2123L29.9458 35.1457C30.9166 35.6811 31.6145 35.404 31.8562 34.2457L35.3083 17.9498C35.6895 16.4332 35.0229 15.8248 33.8458 16.3082L13.5687 24.1415C12.1854 24.6957 12.1937 25.4707 13.3187 25.8144L18.5208 27.4394V27.4373Z" fill="currentColor"/>
  </g>
  <defs>
    <clipPath id="clip0_403_60">
      <rect width="50" height="50" fill="currentColor"/>
    </clipPath>
  </defs>
</svg>
